<mxfile host="app.diagrams.net" modified="2023-01-14T22:32:35.682Z" agent="5.0 (X11)" version="20.8.1" etag="NHd01APKmSgd6N4_a_1_" type="github">
  <diagram id="OqgXAW-LPqEifzOETUMX" name="Page-1">
    <mxGraphModel dx="1114" dy="584" grid="1" gridSize="10" guides="1" tooltips="1" connect="1" arrows="1" fold="1" page="1" pageScale="1" pageWidth="850" pageHeight="1100" math="0" shadow="0">
      <root>
        <mxCell id="0" />
        <mxCell id="1" parent="0" />
        <mxCell id="n1W2GSKpQ4CHd-G-5UiB-4" style="edgeStyle=orthogonalEdgeStyle;rounded=0;orthogonalLoop=1;jettySize=auto;html=1;" edge="1" parent="1" source="n1W2GSKpQ4CHd-G-5UiB-1" target="n1W2GSKpQ4CHd-G-5UiB-3">
          <mxGeometry relative="1" as="geometry" />
        </mxCell>
        <mxCell id="n1W2GSKpQ4CHd-G-5UiB-1" value="JAKARTA &lt;br&gt;BELICIA &amp;amp; ALICIA" style="ellipse;shape=cloud;whiteSpace=wrap;html=1;" vertex="1" parent="1">
          <mxGeometry x="130" y="90" width="160" height="110" as="geometry" />
        </mxCell>
        <mxCell id="n1W2GSKpQ4CHd-G-5UiB-2" value="POP BALI (UBUNG)" style="sketch=0;outlineConnect=0;fontColor=#232F3E;gradientColor=none;fillColor=#4D27AA;strokeColor=none;dashed=0;verticalLabelPosition=bottom;verticalAlign=top;align=center;html=1;fontSize=12;fontStyle=0;aspect=fixed;pointerEvents=1;shape=mxgraph.aws4.router;" vertex="1" parent="1">
          <mxGeometry x="560" y="340" width="50" height="50" as="geometry" />
        </mxCell>
        <mxCell id="n1W2GSKpQ4CHd-G-5UiB-3" value="" style="points=[];aspect=fixed;html=1;align=center;shadow=0;dashed=0;image;image=img/lib/allied_telesis/switch/Switch_24_port_L2.svg;" vertex="1" parent="1">
          <mxGeometry x="540" y="120" width="74.4" height="51" as="geometry" />
        </mxCell>
        <mxCell id="n1W2GSKpQ4CHd-G-5UiB-5" value="SWITCH NIX BALI" style="text;html=1;align=center;verticalAlign=middle;resizable=0;points=[];autosize=1;strokeColor=none;fillColor=none;" vertex="1" parent="1">
          <mxGeometry x="519" y="180" width="120" height="30" as="geometry" />
        </mxCell>
        <mxCell id="n1W2GSKpQ4CHd-G-5UiB-6" value="Jakarta&amp;lt;&amp;gt;Bali &lt;br&gt;Fiberstar VLAN 629" style="text;html=1;align=center;verticalAlign=middle;resizable=0;points=[];autosize=1;strokeColor=none;fillColor=none;" vertex="1" parent="1">
          <mxGeometry x="325" y="100" width="130" height="40" as="geometry" />
        </mxCell>
      </root>
    </mxGraphModel>
  </diagram>
</mxfile>
